<svg xmlns="http://www.w3.org/2000/svg" viewBox="0 0 133.59 112.44"><title>Asset 3</title><g id="Layer_2" data-name="Layer 2"><g id="Layer_1-2" data-name="Layer 1"><path d="M83.79,78.09h0a8.46,8.46,0,0,1,8.46,8.46v20a0,0,0,0,1,0,0h-20a8.46,8.46,0,0,1-8.46-8.46v0A20,20,0,0,1,83.79,78.09Z" transform="translate(88.13 -28.13) rotate(45)" style="fill:#213117;opacity:0.5"/><path d="M122.75-2.39h0a8.46,8.46,0,0,1,8.46,8.46v20a0,0,0,0,1,0,0h-20a8.46,8.46,0,0,1-8.46-8.46v0a20,20,0,0,1,20-20Z" transform="translate(42.63 -79.25) rotate(45)" style="fill:#2cad8a;opacity:0.5"/><path d="M102.62,17.73h0a8.46,8.46,0,0,1,8.46,8.46v20a0,0,0,0,1,0,0h-20a8.46,8.46,0,0,1-8.46-8.46v0A20,20,0,0,1,102.62,17.73Z" transform="translate(50.97 -59.12) rotate(45)" style="fill:#add04e;opacity:0.5"/><path d="M82.5,37.85h0A8.46,8.46,0,0,1,91,46.31v20a0,0,0,0,1,0,0H71a8.46,8.46,0,0,1-8.46-8.46v0A20,20,0,0,1,82.5,37.85Z" transform="translate(59.3 -39) rotate(45)" style="fill:#057946;opacity:0.5"/><path d="M62.38,58h0a8.46,8.46,0,0,1,8.46,8.46v20a0,0,0,0,1,0,0h-20A8.46,8.46,0,0,1,42.38,78v0a20,20,0,0,1,20-20Z" transform="translate(67.63 -18.88) rotate(45)" style="fill:#0d4c5e;opacity:0.5"/><path d="M42.51,37.85h0A8.46,8.46,0,0,1,51,46.31v20a0,0,0,0,1,0,0H31a8.46,8.46,0,0,1-8.46-8.46v0A20,20,0,0,1,42.51,37.85Z" transform="translate(47.59 -10.73) rotate(45)" style="fill:#057946;opacity:0.5"/><path d="M22.39,58h0a8.46,8.46,0,0,1,8.46,8.46v20a0,0,0,0,1,0,0h-20A8.46,8.46,0,0,1,2.39,78v0a20,20,0,0,1,20-20Z" transform="translate(55.92 9.4) rotate(45)" style="fill:#0d4c5e;opacity:0.5"/><path d="M42-2.39h0a8.46,8.46,0,0,1,8.46,8.46v20a0,0,0,0,1,0,0h-20A8.46,8.46,0,0,1,22,17.61v0A20,20,0,0,1,42-2.39Z" transform="translate(18.98 -22.15) rotate(45)" style="fill:#2cad8a;opacity:0.5"/></g></g></svg>