<svg xmlns="http://www.w3.org/2000/svg" viewBox="0 0 1446.46 834.16"><title>Asset 2</title><g id="Layer_2" data-name="Layer 2"><g id="Layer_1-2" data-name="Layer 1"><line x1="3.1" y1="120.59" x2="697.34" y2="814.83" style="fill:none;stroke:#006837;stroke-miterlimit:10;opacity:0.5"/><line x1="0.35" y1="71.58" x2="746.87" y2="817.06" style="fill:none;stroke:#006837;stroke-miterlimit:10;opacity:0.5"/><line x1="719.01" y1="4.85" x2="5.13" y2="718.73" style="fill:none;stroke:#006837;stroke-miterlimit:10;opacity:0.5"/><line x1="414.01" y1="2.85" x2="4.01" y2="412.85" style="fill:none;stroke:#006837;stroke-miterlimit:10;opacity:0.5"/><line x1="768.51" y1="0.35" x2="1.51" y2="768.35" style="fill:none;stroke:#006837;stroke-miterlimit:10;opacity:0.5"/><line x1="1005.61" y1="2.32" x2="1442.61" y2="439.32" style="fill:none;stroke:#006837;stroke-miterlimit:10;opacity:0.5"/><line x1="890.61" y1="2.32" x2="1444.11" y2="555.82" style="fill:none;stroke:#006837;stroke-miterlimit:10;opacity:0.5"/><line x1="1051.61" y1="2.32" x2="1446.11" y2="396.82" style="fill:none;stroke:#006837;stroke-miterlimit:10;opacity:0.5"/><line x1="144.91" y1="2.39" x2="144.91" y2="817.39" style="fill:none;stroke:#006837;stroke-miterlimit:10;opacity:0.5"/><line x1="168.62" y1="2.39" x2="168.62" y2="817.39" style="fill:none;stroke:#006837;stroke-miterlimit:10;opacity:0.5"/><line x1="1395.91" y1="2.39" x2="1395.91" y2="816.39" style="fill:none;stroke:#006837;stroke-miterlimit:10;opacity:0.5"/><line x1="1420.15" y1="2.39" x2="1420.15" y2="816.39" style="fill:none;stroke:#006837;stroke-miterlimit:10;opacity:0.5"/><line x1="119.62" y1="2.39" x2="119.62" y2="817.39" style="fill:none;stroke:#006837;stroke-miterlimit:10;opacity:0.5"/><path d="M60.87,36.41h0a8.46,8.46,0,0,1,8.46,8.46v20a0,0,0,0,1,0,0h-20a8.46,8.46,0,0,1-8.46-8.46v0A20,20,0,0,1,60.87,36.41Z" transform="translate(-19.67 53.79) rotate(-45)" style="fill:#057946;opacity:0.5"/><path d="M81,56.53h0A8.46,8.46,0,0,1,89.45,65V85a0,0,0,0,1,0,0h-20A8.46,8.46,0,0,1,61,76.53v0a20,20,0,0,1,20-20Z" transform="translate(-28 73.92) rotate(-45)" style="fill:#0d4c5e;opacity:0.5"/><path d="M101.12,76.65h0a8.46,8.46,0,0,1,8.46,8.46v20a0,0,0,0,1,0,0h-20a8.46,8.46,0,0,1-8.46-8.46v0a20,20,0,0,1,20-20Z" transform="translate(-36.34 94.04) rotate(-45)" style="fill:#213117;opacity:0.5"/><path d="M141.36,116.9h0a8.46,8.46,0,0,1,8.46,8.46v20a0,0,0,0,1,0,0h-20a8.46,8.46,0,0,1-8.46-8.46v0A20,20,0,0,1,141.36,116.9Z" transform="translate(-53.01 134.28) rotate(-45)" style="fill:#006832;opacity:0.5"/><path d="M161.48,137h0a8.46,8.46,0,0,1,8.46,8.46v20a0,0,0,0,1,0,0h-20a8.46,8.46,0,0,1-8.46-8.46v0A20,20,0,0,1,161.48,137Z" transform="translate(-61.34 154.4) rotate(-45)" style="fill:#8bd571;opacity:0.5"/><path d="M20.63,36.16h0a8.46,8.46,0,0,1,8.46,8.46v20a0,0,0,0,1,0,0h-20A8.46,8.46,0,0,1,.63,56.16v0a20,20,0,0,1,20-20Z" transform="translate(-31.28 25.27) rotate(-45)" style="fill:#2cad8a;opacity:0.5"/><path d="M60.87,76.4h0a8.46,8.46,0,0,1,8.46,8.46v20a0,0,0,0,1,0,0h-20a8.46,8.46,0,0,1-8.46-8.46v0a20,20,0,0,1,20-20Z" transform="translate(-47.95 65.51) rotate(-45)" style="fill:#057946;opacity:0.5"/><path d="M121.24,136.77h0a8.46,8.46,0,0,1,8.46,8.46v20a0,0,0,0,1,0,0h-20a8.46,8.46,0,0,1-8.46-8.46v0A20,20,0,0,1,121.24,136.77Z" transform="translate(-72.95 125.87) rotate(-45)" style="fill:#315453;opacity:0.5"/><path d="M141.36,156.89h0a8.46,8.46,0,0,1,8.46,8.46v20a0,0,0,0,1,0,0h-20a8.46,8.46,0,0,1-8.46-8.46v0A20,20,0,0,1,141.36,156.89Z" transform="translate(-81.29 145.99) rotate(-45)" style="fill:#006832;opacity:0.5"/><path d="M161.48,177h0a8.46,8.46,0,0,1,8.46,8.46v20a0,0,0,0,1,0,0h-20a8.46,8.46,0,0,1-8.46-8.46v0A20,20,0,0,1,161.48,177Z" transform="translate(-89.62 166.11) rotate(-45)" style="fill:#8bd571;opacity:0.5"/><path d="M20.63,76.92h0a8.46,8.46,0,0,1,8.46,8.46v20a0,0,0,0,1,0,0h-20A8.46,8.46,0,0,1,.63,96.92v0a20,20,0,0,1,20-20Z" transform="translate(-60.1 37.2) rotate(-45)" style="fill:#2cad8a;opacity:0.5"/><path d="M40.75,97h0a8.46,8.46,0,0,1,8.46,8.46v20a0,0,0,0,1,0,0h-20A8.46,8.46,0,0,1,20.75,117v0A20,20,0,0,1,40.75,97Z" transform="translate(-68.44 57.33) rotate(-45)" style="fill:#add04e;opacity:0.5"/><path d="M60.87,117.16h0a8.46,8.46,0,0,1,8.46,8.46v20a0,0,0,0,1,0,0h-20a8.46,8.46,0,0,1-8.46-8.46v0A20,20,0,0,1,60.87,117.16Z" transform="translate(-76.77 77.45) rotate(-45)" style="fill:#057946;opacity:0.5"/><path d="M81,137.29h0a8.46,8.46,0,0,1,8.46,8.46v20a0,0,0,0,1,0,0h-20A8.46,8.46,0,0,1,61,157.29v0a20,20,0,0,1,20-20Z" transform="translate(-85.1 97.57) rotate(-45)" style="fill:#0d4c5e;opacity:0.5"/><path d="M101.12,157.41h0a8.46,8.46,0,0,1,8.46,8.46v20a0,0,0,0,1,0,0h-20a8.46,8.46,0,0,1-8.46-8.46v0A20,20,0,0,1,101.12,157.41Z" transform="translate(-93.44 117.69) rotate(-45)" style="fill:#213117;opacity:0.5"/><path d="M121.24,177.53h0a8.46,8.46,0,0,1,8.46,8.46v20a0,0,0,0,1,0,0h-20a8.46,8.46,0,0,1-8.46-8.46v0A20,20,0,0,1,121.24,177.53Z" transform="translate(-101.77 137.81) rotate(-45)" style="fill:#315453;opacity:0.5"/><path d="M141.36,197.65h0a8.46,8.46,0,0,1,8.46,8.46v20a0,0,0,0,1,0,0h-20a8.46,8.46,0,0,1-8.46-8.46v0A20,20,0,0,1,141.36,197.65Z" transform="translate(-110.11 157.93) rotate(-45)" style="fill:#006832;opacity:0.5"/><path d="M161.48,217.77h0a8.46,8.46,0,0,1,8.46,8.46v20a0,0,0,0,1,0,0h-20a8.46,8.46,0,0,1-8.46-8.46v0A20,20,0,0,1,161.48,217.77Z" transform="translate(-118.44 178.05) rotate(-45)" style="fill:#8bd571;opacity:0.5"/><path d="M20.63,117.68h0a8.46,8.46,0,0,1,8.46,8.46v20a0,0,0,0,1,0,0h-20a8.46,8.46,0,0,1-8.46-8.46v0a20,20,0,0,1,20-20Z" transform="translate(-88.92 49.14) rotate(-45)" style="fill:#2cad8a;opacity:0.5"/><path d="M556.12,131.65h0a8.46,8.46,0,0,1,8.46,8.46v20a0,0,0,0,1,0,0h-20a8.46,8.46,0,0,1-8.46-8.46v0A20,20,0,0,1,556.12,131.65Z" transform="translate(836.35 638.18) rotate(-135)" style="fill:#057946;opacity:0.5"/><path d="M576.24,111.53h0a8.46,8.46,0,0,1,8.46,8.46v20a0,0,0,0,1,0,0h-20a8.46,8.46,0,0,1-8.46-8.46v0a20,20,0,0,1,20-20Z" transform="translate(884.92 618.06) rotate(-135)" style="fill:#0d4c5e;opacity:0.5"/><path d="M596.36,91.41h0a8.46,8.46,0,0,1,8.46,8.46v20a0,0,0,0,1,0,0h-20a8.46,8.46,0,0,1-8.46-8.46v0a20,20,0,0,1,20-20Z" transform="translate(933.5 597.94) rotate(-135)" style="fill:#213117;opacity:0.5"/><path d="M636.6,51.17h0a8.46,8.46,0,0,1,8.46,8.46v20a0,0,0,0,1,0,0h-20a8.46,8.46,0,0,1-8.46-8.46v0A20,20,0,0,1,636.6,51.17Z" transform="translate(1030.65 557.7) rotate(-135)" style="fill:#006832;opacity:0.5"/><path d="M596.11,131.65h0a8.46,8.46,0,0,1,8.46,8.46v20a0,0,0,0,1,0,0h-20a8.46,8.46,0,0,1-8.46-8.46v0a20,20,0,0,1,20-20Z" transform="translate(904.62 666.46) rotate(-135)" style="fill:#057946;opacity:0.5"/><path d="M616.75,151.77h0a8.46,8.46,0,0,1,8.46,8.46v20a0,0,0,0,1,0,0h-20a8.46,8.46,0,0,1-8.46-8.46v0A20,20,0,0,1,616.75,151.77Z" transform="translate(925.62 715.4) rotate(-135)" style="fill:#add04e;opacity:0.5"/><path d="M636.87,131.65h0a8.46,8.46,0,0,1,8.46,8.46v20a0,0,0,0,1,0,0h-20a8.46,8.46,0,0,1-8.46-8.46v0A20,20,0,0,1,636.87,131.65Z" transform="translate(974.2 695.28) rotate(-135)" style="fill:#057946;opacity:0.5"/><path d="M637.39,171.89h0a8.46,8.46,0,0,1,8.46,8.46v20a0,0,0,0,1,0,0h-20a8.46,8.46,0,0,1-8.46-8.46v0A20,20,0,0,1,637.39,171.89Z" transform="translate(946.63 764.35) rotate(-135)" style="fill:#2cad8a;opacity:0.5"/><path d="M60.87,157.93h0a8.46,8.46,0,0,1,8.46,8.46v20a0,0,0,0,1,0,0h-20a8.46,8.46,0,0,1-8.46-8.46v0A20,20,0,0,1,60.87,157.93Z" transform="translate(-105.59 89.39) rotate(-45)" style="fill:#057946;opacity:0.5"/><path d="M81,178h0a8.46,8.46,0,0,1,8.46,8.46v20a0,0,0,0,1,0,0h-20A8.46,8.46,0,0,1,61,198v0a20,20,0,0,1,20-20Z" transform="translate(-113.93 109.51) rotate(-45)" style="fill:#0d4c5e;opacity:0.5"/><path d="M101.12,198.17h0a8.46,8.46,0,0,1,8.46,8.46v20a0,0,0,0,1,0,0h-20a8.46,8.46,0,0,1-8.46-8.46v0A20,20,0,0,1,101.12,198.17Z" transform="translate(-122.26 129.63) rotate(-45)" style="fill:#213117;opacity:0.5"/><path d="M121.24,218.29h0a8.46,8.46,0,0,1,8.46,8.46v20a0,0,0,0,1,0,0h-20a8.46,8.46,0,0,1-8.46-8.46v0A20,20,0,0,1,121.24,218.29Z" transform="translate(-130.6 149.75) rotate(-45)" style="fill:#315453;opacity:0.5"/><path d="M141.36,238.41h0a8.46,8.46,0,0,1,8.46,8.46v20a0,0,0,0,1,0,0h-20a8.46,8.46,0,0,1-8.46-8.46v0a20,20,0,0,1,20-20Z" transform="translate(-138.93 169.87) rotate(-45)" style="fill:#006832;opacity:0.5"/><path d="M20.63,159.21h0a8.46,8.46,0,0,1,8.46,8.46v20a0,0,0,0,1,0,0h-20a8.46,8.46,0,0,1-8.46-8.46v0A20,20,0,0,1,20.63,159.21Z" transform="translate(-118.29 61.31) rotate(-45)" style="fill:#2cad8a;opacity:0.5"/><path d="M40.75,179.33h0a8.46,8.46,0,0,1,8.46,8.46v20a0,0,0,0,1,0,0h-20a8.46,8.46,0,0,1-8.46-8.46v0A20,20,0,0,1,40.75,179.33Z" transform="translate(-126.62 81.43) rotate(-45)" style="fill:#add04e;opacity:0.5"/><path d="M60.87,199.46h0a8.46,8.46,0,0,1,8.46,8.46v20a0,0,0,0,1,0,0h-20a8.46,8.46,0,0,1-8.46-8.46v0A20,20,0,0,1,60.87,199.46Z" transform="translate(-134.96 101.55) rotate(-45)" style="fill:#057946;opacity:0.5"/><path d="M81,219.58h0A8.46,8.46,0,0,1,89.45,228v20a0,0,0,0,1,0,0h-20A8.46,8.46,0,0,1,61,239.58v0A20,20,0,0,1,81,219.58Z" transform="translate(-143.29 121.67) rotate(-45)" style="fill:#0d4c5e;opacity:0.5"/><path d="M161.48,300.06h0a8.46,8.46,0,0,1,8.46,8.46v20a0,0,0,0,1,0,0h-20a8.46,8.46,0,0,1-8.46-8.46v0a20,20,0,0,1,20-20Z" transform="translate(-176.63 202.15) rotate(-45)" style="fill:#8bd571;opacity:0.5"/><path d="M60.87,239.45h0a8.46,8.46,0,0,1,8.46,8.46v20a0,0,0,0,1,0,0h-20a8.46,8.46,0,0,1-8.46-8.46v0A20,20,0,0,1,60.87,239.45Z" transform="translate(-163.24 113.26) rotate(-45)" style="fill:#057946;opacity:0.5"/><path d="M81,259.57h0A8.46,8.46,0,0,1,89.45,268v20a0,0,0,0,1,0,0h-20A8.46,8.46,0,0,1,61,279.57v0a20,20,0,0,1,20-20Z" transform="translate(-171.57 133.38) rotate(-45)" style="fill:#0d4c5e;opacity:0.5"/><path d="M121.24,299.81h0a8.46,8.46,0,0,1,8.46,8.46v20a0,0,0,0,1,0,0h-20a8.46,8.46,0,0,1-8.46-8.46v0A20,20,0,0,1,121.24,299.81Z" transform="translate(-188.24 173.63) rotate(-45)" style="fill:#315453;opacity:0.5"/><path d="M20.63,240h0a8.46,8.46,0,0,1,8.46,8.46v20a0,0,0,0,1,0,0h-20A8.46,8.46,0,0,1,.63,260v0a20,20,0,0,1,20-20Z" transform="translate(-175.39 84.96) rotate(-45)" style="fill:#2cad8a;opacity:0.5"/><path d="M40.75,260.09h0a8.46,8.46,0,0,1,8.46,8.46v20a0,0,0,0,1,0,0h-20a8.46,8.46,0,0,1-8.46-8.46v0A20,20,0,0,1,40.75,260.09Z" transform="translate(-183.72 105.08) rotate(-45)" style="fill:#add04e;opacity:0.5"/><path d="M60.87,280.21h0a8.46,8.46,0,0,1,8.46,8.46v20a0,0,0,0,1,0,0h-20a8.46,8.46,0,0,1-8.46-8.46v0A20,20,0,0,1,60.87,280.21Z" transform="translate(-192.06 125.2) rotate(-45)" style="fill:#057946;opacity:0.5"/><path d="M81,300.33h0a8.46,8.46,0,0,1,8.46,8.46v20a0,0,0,0,1,0,0h-20A8.46,8.46,0,0,1,61,320.33v0A20,20,0,0,1,81,300.33Z" transform="translate(-200.39 145.32) rotate(-45)" style="fill:#0d4c5e;opacity:0.5"/><path d="M121.24,340.57h0a8.46,8.46,0,0,1,8.46,8.46v20a0,0,0,0,1,0,0h-20a8.46,8.46,0,0,1-8.46-8.46v0a20,20,0,0,1,20-20Z" transform="translate(-217.06 185.56) rotate(-45)" style="fill:#315453;opacity:0.5"/><path d="M40.75,300.85h0a8.46,8.46,0,0,1,8.46,8.46v20a0,0,0,0,1,0,0h-20a8.46,8.46,0,0,1-8.46-8.46v0a20,20,0,0,1,20-20Z" transform="translate(-212.55 117.02) rotate(-45)" style="fill:#add04e;opacity:0.5"/><path d="M81,341.09h0a8.46,8.46,0,0,1,8.46,8.46v20a0,0,0,0,1,0,0h-20A8.46,8.46,0,0,1,61,361.09v0A20,20,0,0,1,81,341.09Z" transform="translate(-229.21 157.26) rotate(-45)" style="fill:#0d4c5e;opacity:0.5"/><path d="M1425.89,236.69h0a8.46,8.46,0,0,1,8.46,8.46v20a0,0,0,0,1,0,0h-20a8.46,8.46,0,0,1-8.46-8.46v0a20,20,0,0,1,20-20Z" transform="translate(593.37 -930.68) rotate(45)" style="fill:#057946;opacity:0.5"/><path d="M1405.77,256.81h0a8.46,8.46,0,0,1,8.46,8.46v20a0,0,0,0,1,0,0h-20a8.46,8.46,0,0,1-8.46-8.46v0a20,20,0,0,1,20-20Z" transform="translate(601.7 -910.56) rotate(45)" style="fill:#0d4c5e;opacity:0.5"/><path d="M1385.65,276.93h0a8.46,8.46,0,0,1,8.46,8.46v20a0,0,0,0,1,0,0h-20a8.46,8.46,0,0,1-8.46-8.46v0a20,20,0,0,1,20-20Z" transform="translate(610.04 -890.44) rotate(45)" style="fill:#213117;opacity:0.5"/><path d="M1345.4,317.17h0a8.46,8.46,0,0,1,8.46,8.46v20a0,0,0,0,1,0,0h-20a8.46,8.46,0,0,1-8.46-8.46v0A20,20,0,0,1,1345.4,317.17Z" transform="translate(626.71 -850.2) rotate(45)" style="fill:#006832;opacity:0.5"/><path d="M1426.14,196.45h0a8.46,8.46,0,0,1,8.46,8.46v20a0,0,0,0,1,0,0h-20a8.46,8.46,0,0,1-8.46-8.46v0a20,20,0,0,1,20-20Z" transform="translate(564.99 -942.65) rotate(45)" style="fill:#2cad8a;opacity:0.5"/><path d="M1385.9,236.69h0a8.46,8.46,0,0,1,8.46,8.46v20a0,0,0,0,1,0,0h-20a8.46,8.46,0,0,1-8.46-8.46v0a20,20,0,0,1,20-20Z" transform="translate(581.65 -902.4) rotate(45)" style="fill:#057946;opacity:0.5"/><path d="M1365.26,216.57h0a8.46,8.46,0,0,1,8.46,8.46v20a0,0,0,0,1,0,0h-20a8.46,8.46,0,0,1-8.46-8.46v0A20,20,0,0,1,1365.26,216.57Z" transform="translate(561.38 -893.7) rotate(45)" style="fill:#add04e;opacity:0.5"/><path d="M1345.14,236.69h0a8.46,8.46,0,0,1,8.46,8.46v20a0,0,0,0,1,0,0h-20a8.46,8.46,0,0,1-8.46-8.46v0a20,20,0,0,1,20-20Z" transform="translate(569.72 -873.58) rotate(45)" style="fill:#057946;opacity:0.5"/><path d="M1264.65,317.17h0a8.46,8.46,0,0,1,8.46,8.46v20a0,0,0,0,1,0,0h-20a8.46,8.46,0,0,1-8.46-8.46v0a20,20,0,0,1,20-20Z" transform="translate(603.05 -793.1) rotate(45)" style="fill:#006832;opacity:0.5"/><path d="M1244.53,337.3h0a8.46,8.46,0,0,1,8.46,8.46v20a0,0,0,0,1,0,0h-20a8.46,8.46,0,0,1-8.46-8.46v0a20,20,0,0,1,20-20Z" transform="translate(611.39 -772.98) rotate(45)" style="fill:#8bd571;opacity:0.5"/><path d="M1344.62,196.45h0a8.46,8.46,0,0,1,8.46,8.46v20a0,0,0,0,1,0,0h-20a8.46,8.46,0,0,1-8.46-8.46v0a20,20,0,0,1,20-20Z" transform="translate(541.11 -885) rotate(45)" style="fill:#2cad8a;opacity:0.5"/><path d="M1264.13,276.93h0a8.46,8.46,0,0,1,8.46,8.46v20a0,0,0,0,1,0,0h-20a8.46,8.46,0,0,1-8.46-8.46v0a20,20,0,0,1,20-20Z" transform="translate(574.45 -804.52) rotate(45)" style="fill:#213117;opacity:0.5"/><path d="M1244,297.05h0a8.46,8.46,0,0,1,8.46,8.46v20a0,0,0,0,1,0,0h-20a8.46,8.46,0,0,1-8.46-8.46v0A20,20,0,0,1,1244,297.05Z" transform="translate(582.78 -784.4) rotate(45)" style="fill:#315453;opacity:0.5"/><path d="M1223.89,317.17h0a8.46,8.46,0,0,1,8.46,8.46v20a0,0,0,0,1,0,0h-20a8.46,8.46,0,0,1-8.46-8.46v0a20,20,0,0,1,20-20Z" transform="translate(591.12 -764.27) rotate(45)" style="fill:#006832;opacity:0.5"/><path d="M1303.09,196.45h0a8.46,8.46,0,0,1,8.46,8.46v20a0,0,0,0,1,0,0h-20a8.46,8.46,0,0,1-8.46-8.46v0a20,20,0,0,1,20-20Z" transform="translate(528.95 -855.64) rotate(45)" style="fill:#2cad8a;opacity:0.5"/><path d="M1283,216.57h0a8.46,8.46,0,0,1,8.46,8.46v20a0,0,0,0,1,0,0h-20a8.46,8.46,0,0,1-8.46-8.46v0a20,20,0,0,1,20-20Z" transform="translate(537.28 -835.51) rotate(45)" style="fill:#add04e;opacity:0.5"/><path d="M1262.85,236.69h0a8.46,8.46,0,0,1,8.46,8.46v20a0,0,0,0,1,0,0h-20a8.46,8.46,0,0,1-8.46-8.46v0a20,20,0,0,1,20-20Z" transform="translate(545.61 -815.39) rotate(45)" style="fill:#057946;opacity:0.5"/><path d="M1242.72,256.81h0a8.46,8.46,0,0,1,8.46,8.46v20a0,0,0,0,1,0,0h-20a8.46,8.46,0,0,1-8.46-8.46v0A20,20,0,0,1,1242.72,256.81Z" transform="translate(553.95 -795.27) rotate(45)" style="fill:#0d4c5e;opacity:0.5"/><path d="M1162.24,337.3h0a8.46,8.46,0,0,1,8.46,8.46v20a0,0,0,0,1,0,0h-20a8.46,8.46,0,0,1-8.46-8.46v0a20,20,0,0,1,20-20Z" transform="translate(587.29 -714.79) rotate(45)" style="fill:#8bd571;opacity:0.5"/><path d="M1222.85,236.69h0a8.46,8.46,0,0,1,8.46,8.46v20a0,0,0,0,1,0,0h-20a8.46,8.46,0,0,1-8.46-8.46v0a20,20,0,0,1,20-20Z" transform="translate(533.9 -787.11) rotate(45)" style="fill:#057946;opacity:0.5"/><path d="M1202.73,256.81h0a8.46,8.46,0,0,1,8.46,8.46v20a0,0,0,0,1,0,0h-20a8.46,8.46,0,0,1-8.46-8.46v0A20,20,0,0,1,1202.73,256.81Z" transform="translate(542.24 -766.99) rotate(45)" style="fill:#0d4c5e;opacity:0.5"/><path d="M1162.49,297.05h0a8.46,8.46,0,0,1,8.46,8.46v20a0,0,0,0,1,0,0h-20a8.46,8.46,0,0,1-8.46-8.46v0a20,20,0,0,1,20-20Z" transform="translate(558.9 -726.75) rotate(45)" style="fill:#315453;opacity:0.5"/><path d="M1222.34,196.45h0a8.46,8.46,0,0,1,8.46,8.46v20a0,0,0,0,1,0,0h-20a8.46,8.46,0,0,1-8.46-8.46v0A20,20,0,0,1,1222.34,196.45Z" transform="translate(505.29 -798.53) rotate(45)" style="fill:#2cad8a;opacity:0.5"/><path d="M1264.13,88.93h0a8.46,8.46,0,0,1,8.46,8.46v20a0,0,0,0,1,0,0h-20a8.46,8.46,0,0,1-8.46-8.46v0A20,20,0,0,1,1264.13,88.93Z" transform="translate(441.51 -859.58) rotate(45)" style="fill:#213117;opacity:0.5"/><path d="M1303.09,8.45h0a8.46,8.46,0,0,1,8.46,8.46v20a0,0,0,0,1,0,0h-20a8.46,8.46,0,0,1-8.46-8.46v0a20,20,0,0,1,20-20Z" transform="translate(396.01 -910.7) rotate(45)" style="fill:#2cad8a;opacity:0.5"/><path d="M1283,28.57h0a8.46,8.46,0,0,1,8.46,8.46V57a0,0,0,0,1,0,0h-20a8.46,8.46,0,0,1-8.46-8.46v0a20,20,0,0,1,20-20Z" transform="translate(404.34 -890.58) rotate(45)" style="fill:#add04e;opacity:0.5"/><path d="M1262.85,48.69h0a8.46,8.46,0,0,1,8.46,8.46v20a0,0,0,0,1,0,0h-20a8.46,8.46,0,0,1-8.46-8.46v0A20,20,0,0,1,1262.85,48.69Z" transform="translate(412.68 -870.46) rotate(45)" style="fill:#057946;opacity:0.5"/><path d="M1242.72,68.81h0a8.46,8.46,0,0,1,8.46,8.46v20a0,0,0,0,1,0,0h-20a8.46,8.46,0,0,1-8.46-8.46v0a20,20,0,0,1,20-20Z" transform="translate(421.01 -850.34) rotate(45)" style="fill:#0d4c5e;opacity:0.5"/><path d="M1222.85,48.69h0a8.46,8.46,0,0,1,8.46,8.46v20a0,0,0,0,1,0,0h-20a8.46,8.46,0,0,1-8.46-8.46v0a20,20,0,0,1,20-20Z" transform="translate(400.96 -842.18) rotate(45)" style="fill:#057946;opacity:0.5"/><path d="M1202.73,68.81h0a8.46,8.46,0,0,1,8.46,8.46v20a0,0,0,0,1,0,0h-20a8.46,8.46,0,0,1-8.46-8.46v0A20,20,0,0,1,1202.73,68.81Z" transform="translate(409.3 -822.06) rotate(45)" style="fill:#0d4c5e;opacity:0.5"/><path d="M1222.34,8.45h0a8.46,8.46,0,0,1,8.46,8.46v20a0,0,0,0,1,0,0h-20a8.46,8.46,0,0,1-8.46-8.46v0A20,20,0,0,1,1222.34,8.45Z" transform="translate(372.36 -853.6) rotate(45)" style="fill:#2cad8a;opacity:0.5"/><path d="M1121.73,297.05h0a8.46,8.46,0,0,1,8.46,8.46v20a0,0,0,0,1,0,0h-20a8.46,8.46,0,0,1-8.46-8.46v0a20,20,0,0,1,20-20Z" transform="translate(546.97 -697.93) rotate(45)" style="fill:#315453;opacity:0.5"/><path d="M1195.4,500.17h0a8.46,8.46,0,0,1,8.46,8.46v20a0,0,0,0,1,0,0h-20a8.46,8.46,0,0,1-8.46-8.46v0a20,20,0,0,1,20-20Z" transform="translate(712.17 -690.53) rotate(45)" style="fill:#006832;opacity:0.5"/><path d="M1243.14,379.45h0a8.46,8.46,0,0,1,8.46,8.46v20a0,0,0,0,1,0,0h-20a8.46,8.46,0,0,1-8.46-8.46v0A20,20,0,0,1,1243.14,379.45Z" transform="translate(640.79 -759.65) rotate(45)" style="fill:#2cad8a;opacity:0.5"/><path d="M1134.77,480.05h0a8.46,8.46,0,0,1,8.46,8.46v20a0,0,0,0,1,0,0h-20a8.46,8.46,0,0,1-8.46-8.46v0A20,20,0,0,1,1134.77,480.05Z" transform="translate(680.19 -653.55) rotate(45)" style="fill:#315453;opacity:0.5"/><path d="M1094.53,520.3h0a8.46,8.46,0,0,1,8.46,8.46v20a0,0,0,0,1,0,0h-20a8.46,8.46,0,0,1-8.46-8.46v0A20,20,0,0,1,1094.53,520.3Z" transform="translate(696.86 -613.31) rotate(45)" style="fill:#8bd571;opacity:0.5"/><path d="M1154.38,419.69h0a8.46,8.46,0,0,1,8.46,8.46v20a0,0,0,0,1,0,0h-20a8.46,8.46,0,0,1-8.46-8.46v0A20,20,0,0,1,1154.38,419.69Z" transform="translate(643.24 -685.09) rotate(45)" style="fill:#057946;opacity:0.5"/><path d="M1101.25,439.81h0a8.46,8.46,0,0,1,8.46,8.46v20a0,0,0,0,1,0,0h-20a8.46,8.46,0,0,1-8.46-8.46v0a20,20,0,0,1,20-20Z" transform="translate(641.91 -641.64) rotate(45)" style="fill:#0d4c5e;opacity:0.5"/><path d="M1114.13,459.93h0a8.46,8.46,0,0,1,8.46,8.46v20a0,0,0,0,1,0,0h-20a8.46,8.46,0,0,1-8.46-8.46v0A20,20,0,0,1,1114.13,459.93Z" transform="translate(659.91 -644.85) rotate(45)" style="fill:#213117;opacity:0.5"/><path d="M1094,480.05h0a8.46,8.46,0,0,1,8.46,8.46v20a0,0,0,0,1,0,0h-20a8.46,8.46,0,0,1-8.46-8.46v0A20,20,0,0,1,1094,480.05Z" transform="translate(668.25 -624.73) rotate(45)" style="fill:#315453;opacity:0.5"/><path d="M1073.89,500.17h0a8.46,8.46,0,0,1,8.46,8.46v20a0,0,0,0,1,0,0h-20a8.46,8.46,0,0,1-8.46-8.46v0A20,20,0,0,1,1073.89,500.17Z" transform="translate(676.58 -604.61) rotate(45)" style="fill:#006832;opacity:0.5"/><path d="M1153.09,379.45h0a8.46,8.46,0,0,1,8.46,8.46v20a0,0,0,0,1,0,0h-20a8.46,8.46,0,0,1-8.46-8.46v0A20,20,0,0,1,1153.09,379.45Z" transform="translate(614.41 -695.97) rotate(45)" style="fill:#2cad8a;opacity:0.5"/><path d="M1133,399.57h0a8.46,8.46,0,0,1,8.46,8.46v20a0,0,0,0,1,0,0h-20a8.46,8.46,0,0,1-8.46-8.46v0A20,20,0,0,1,1133,399.57Z" transform="translate(622.75 -675.85) rotate(45)" style="fill:#add04e;opacity:0.5"/><path d="M1112.85,419.69h0a8.46,8.46,0,0,1,8.46,8.46v20a0,0,0,0,1,0,0h-20a8.46,8.46,0,0,1-8.46-8.46v0a20,20,0,0,1,20-20Z" transform="translate(631.08 -655.73) rotate(45)" style="fill:#057946;opacity:0.5"/><path d="M1053.72,439.81h0a8.46,8.46,0,0,1,8.46,8.46v20a0,0,0,0,1,0,0h-20a8.46,8.46,0,0,1-8.46-8.46v0a20,20,0,0,1,20-20Z" transform="translate(627.99 -608.03) rotate(45)" style="fill:#0d4c5e;opacity:0.5"/><path d="M1072.85,419.69h0a8.46,8.46,0,0,1,8.46,8.46v20a0,0,0,0,1,0,0h-20a8.46,8.46,0,0,1-8.46-8.46v0a20,20,0,0,1,20-20Z" transform="translate(619.37 -627.45) rotate(45)" style="fill:#057946;opacity:0.5"/><path d="M971.21,439.81h0a8.46,8.46,0,0,1,8.46,8.46v20a0,0,0,0,1,0,0h-20a8.46,8.46,0,0,1-8.46-8.46v0a20,20,0,0,1,20-20Z" transform="translate(603.82 -549.68) rotate(45)" style="fill:#0d4c5e;opacity:0.5"/><path d="M101.12,361.21h0a8.46,8.46,0,0,1,8.46,8.46v20a0,0,0,0,1,0,0h-20a8.46,8.46,0,0,1-8.46-8.46v0a20,20,0,0,1,20-20Z" transform="translate(-237.55 177.38) rotate(-45)" style="fill:#213117;opacity:0.5"/><path d="M121.24,381.33h0a8.46,8.46,0,0,1,8.46,8.46v20a0,0,0,0,1,0,0h-20a8.46,8.46,0,0,1-8.46-8.46v0A20,20,0,0,1,121.24,381.33Z" transform="translate(-245.88 197.5) rotate(-45)" style="fill:#315453;opacity:0.5"/><path d="M141.36,401.45h0a8.46,8.46,0,0,1,8.46,8.46v20a0,0,0,0,1,0,0h-20a8.46,8.46,0,0,1-8.46-8.46v0a20,20,0,0,1,20-20Z" transform="translate(-254.22 217.62) rotate(-45)" style="fill:#006832;opacity:0.5"/><path d="M161.48,421.57h0a8.46,8.46,0,0,1,8.46,8.46v20a0,0,0,0,1,0,0h-20a8.46,8.46,0,0,1-8.46-8.46v0A20,20,0,0,1,161.48,421.57Z" transform="translate(-262.55 237.75) rotate(-45)" style="fill:#8bd571;opacity:0.5"/><path d="M60.87,361.73h0a8.46,8.46,0,0,1,8.46,8.46v20a0,0,0,0,1,0,0h-20a8.46,8.46,0,0,1-8.46-8.46v0A20,20,0,0,1,60.87,361.73Z" transform="translate(-249.7 149.08) rotate(-45)" style="fill:#057946;opacity:0.5"/><path d="M81,381.85h0a8.46,8.46,0,0,1,8.46,8.46v20a0,0,0,0,1,0,0h-20A8.46,8.46,0,0,1,61,401.85v0a20,20,0,0,1,20-20Z" transform="translate(-258.04 169.2) rotate(-45)" style="fill:#0d4c5e;opacity:0.5"/><path d="M101.12,402h0a8.46,8.46,0,0,1,8.46,8.46v20a0,0,0,0,1,0,0h-20A8.46,8.46,0,0,1,81.12,422v0a20,20,0,0,1,20-20Z" transform="translate(-266.37 189.32) rotate(-45)" style="fill:#213117;opacity:0.5"/><path d="M121.24,422.09h0a8.46,8.46,0,0,1,8.46,8.46v20a0,0,0,0,1,0,0h-20a8.46,8.46,0,0,1-8.46-8.46v0A20,20,0,0,1,121.24,422.09Z" transform="translate(-274.71 209.44) rotate(-45)" style="fill:#315453;opacity:0.5"/><path d="M40.75,381.6h0a8.46,8.46,0,0,1,8.46,8.46v20a0,0,0,0,1,0,0h-20a8.46,8.46,0,0,1-8.46-8.46v0A20,20,0,0,1,40.75,381.6Z" transform="translate(-269.65 140.67) rotate(-45)" style="fill:#add04e;opacity:0.5"/><path d="M101.12,442h0a8.46,8.46,0,0,1,8.46,8.46v20a0,0,0,0,1,0,0h-20A8.46,8.46,0,0,1,81.12,462v0A20,20,0,0,1,101.12,442Z" transform="translate(-294.65 201.03) rotate(-45)" style="fill:#213117;opacity:0.5"/><path d="M121.24,462.08h0a8.46,8.46,0,0,1,8.46,8.46v20a0,0,0,0,1,0,0h-20a8.46,8.46,0,0,1-8.46-8.46v0a20,20,0,0,1,20-20Z" transform="translate(-302.98 221.15) rotate(-45)" style="fill:#315453;opacity:0.5"/><path d="M141.36,482.21h0a8.46,8.46,0,0,1,8.46,8.46v20a0,0,0,0,1,0,0h-20a8.46,8.46,0,0,1-8.46-8.46v0A20,20,0,0,1,141.36,482.21Z" transform="translate(-311.32 241.28) rotate(-45)" style="fill:#006832;opacity:0.5"/><path d="M20.63,402.24h0a8.46,8.46,0,0,1,8.46,8.46v20a0,0,0,0,1,0,0h-20a8.46,8.46,0,0,1-8.46-8.46v0a20,20,0,0,1,20-20Z" transform="translate(-290.13 132.49) rotate(-45)" style="fill:#2cad8a;opacity:0.5"/><path d="M40.75,422.36h0a8.46,8.46,0,0,1,8.46,8.46v20a0,0,0,0,1,0,0h-20a8.46,8.46,0,0,1-8.46-8.46v0a20,20,0,0,1,20-20Z" transform="translate(-298.47 152.61) rotate(-45)" style="fill:#add04e;opacity:0.5"/><path d="M60.87,442.48h0a8.46,8.46,0,0,1,8.46,8.46v20a0,0,0,0,1,0,0h-20a8.46,8.46,0,0,1-8.46-8.46v0a20,20,0,0,1,20-20Z" transform="translate(-306.8 172.73) rotate(-45)" style="fill:#057946;opacity:0.5"/><path d="M60.87,483.24h0a8.46,8.46,0,0,1,8.46,8.46v20a0,0,0,0,1,0,0h-20a8.46,8.46,0,0,1-8.46-8.46v0a20,20,0,0,1,20-20Z" transform="translate(-335.63 184.67) rotate(-45)" style="fill:#057946;opacity:0.5"/><path d="M81,503.36h0a8.46,8.46,0,0,1,8.46,8.46v20a0,0,0,0,1,0,0h-20A8.46,8.46,0,0,1,61,523.36v0A20,20,0,0,1,81,503.36Z" transform="translate(-343.96 204.79) rotate(-45)" style="fill:#0d4c5e;opacity:0.5"/><path d="M101.12,523.48h0a8.46,8.46,0,0,1,8.46,8.46v20a0,0,0,0,1,0,0h-20a8.46,8.46,0,0,1-8.46-8.46v0A20,20,0,0,1,101.12,523.48Z" transform="translate(-352.29 224.91) rotate(-45)" style="fill:#213117;opacity:0.5"/><path d="M121.24,543.61h0a8.46,8.46,0,0,1,8.46,8.46v20a0,0,0,0,1,0,0h-20a8.46,8.46,0,0,1-8.46-8.46v0A20,20,0,0,1,121.24,543.61Z" transform="translate(-360.63 245.03) rotate(-45)" style="fill:#315453;opacity:0.5"/><path d="M202.26,177.8h0a8.46,8.46,0,0,1,8.46,8.46v20a0,0,0,0,1,0,0h-20a8.46,8.46,0,0,1-8.46-8.46v0A20,20,0,0,1,202.26,177.8Z" transform="translate(-78.23 195.18) rotate(-45)" style="fill:#add04e;opacity:0.5"/><path d="M222.38,197.92h0a8.46,8.46,0,0,1,8.46,8.46v20a0,0,0,0,1,0,0h-20a8.46,8.46,0,0,1-8.46-8.46v0A20,20,0,0,1,222.38,197.92Z" transform="translate(-86.57 215.3) rotate(-45)" style="fill:#057946;opacity:0.5"/><path d="M242.5,218h0a8.46,8.46,0,0,1,8.46,8.46v20a0,0,0,0,1,0,0H231A8.46,8.46,0,0,1,222.5,238v0A20,20,0,0,1,242.5,218Z" transform="translate(-94.9 235.42) rotate(-45)" style="fill:#0d4c5e;opacity:0.5"/><path d="M262.62,238.16h0a8.46,8.46,0,0,1,8.46,8.46v20a0,0,0,0,1,0,0h-20a8.46,8.46,0,0,1-8.46-8.46v0A20,20,0,0,1,262.62,238.16Z" transform="translate(-103.24 255.54) rotate(-45)" style="fill:#213117;opacity:0.5"/><path d="M302.86,278.4h0a8.46,8.46,0,0,1,8.46,8.46v20a0,0,0,0,1,0,0h-20a8.46,8.46,0,0,1-8.46-8.46v0A20,20,0,0,1,302.86,278.4Z" transform="translate(-119.9 295.78) rotate(-45)" style="fill:#006832;opacity:0.5"/><path d="M323,298.52h0a8.46,8.46,0,0,1,8.46,8.46v20a0,0,0,0,1,0,0h-20a8.46,8.46,0,0,1-8.46-8.46v0a20,20,0,0,1,20-20Z" transform="translate(-128.24 315.91) rotate(-45)" style="fill:#8bd571;opacity:0.5"/><path d="M182.14,197.67h0a8.46,8.46,0,0,1,8.46,8.46v20a0,0,0,0,1,0,0h-20a8.46,8.46,0,0,1-8.46-8.46v0A20,20,0,0,1,182.14,197.67Z" transform="translate(-98.18 186.77) rotate(-45)" style="fill:#2cad8a;opacity:0.5"/><path d="M242.5,258h0a8.46,8.46,0,0,1,8.46,8.46v20a0,0,0,0,1,0,0H231A8.46,8.46,0,0,1,222.5,278v0A20,20,0,0,1,242.5,258Z" transform="translate(-123.18 247.13) rotate(-45)" style="fill:#0d4c5e;opacity:0.5"/><path d="M282.74,298.27h0a8.46,8.46,0,0,1,8.46,8.46v20a0,0,0,0,1,0,0h-20a8.46,8.46,0,0,1-8.46-8.46v0a20,20,0,0,1,20-20Z" transform="translate(-139.85 287.38) rotate(-45)" style="fill:#315453;opacity:0.5"/><path d="M222.38,278.67h0a8.46,8.46,0,0,1,8.46,8.46v20a0,0,0,0,1,0,0h-20a8.46,8.46,0,0,1-8.46-8.46v0a20,20,0,0,1,20-20Z" transform="translate(-143.67 238.95) rotate(-45)" style="fill:#057946;opacity:0.5"/><path d="M242.5,298.79h0a8.46,8.46,0,0,1,8.46,8.46v20a0,0,0,0,1,0,0H231a8.46,8.46,0,0,1-8.46-8.46v0A20,20,0,0,1,242.5,298.79Z" transform="translate(-152 259.07) rotate(-45)" style="fill:#0d4c5e;opacity:0.5"/><path d="M262.62,318.91h0a8.46,8.46,0,0,1,8.46,8.46v20a0,0,0,0,1,0,0h-20a8.46,8.46,0,0,1-8.46-8.46v0A20,20,0,0,1,262.62,318.91Z" transform="translate(-160.34 279.19) rotate(-45)" style="fill:#213117;opacity:0.5"/><path d="M282.74,339h0a8.46,8.46,0,0,1,8.46,8.46v20a0,0,0,0,1,0,0h-20a8.46,8.46,0,0,1-8.46-8.46v0A20,20,0,0,1,282.74,339Z" transform="translate(-168.67 299.31) rotate(-45)" style="fill:#315453;opacity:0.5"/><path d="M349.62,238.16h0a8.46,8.46,0,0,1,8.46,8.46v20a0,0,0,0,1,0,0h-20a8.46,8.46,0,0,1-8.46-8.46v0A20,20,0,0,1,349.62,238.16Z" transform="translate(-77.75 317.06) rotate(-45)" style="fill:#213117;opacity:0.5"/><path d="M389.86,278.4h0a8.46,8.46,0,0,1,8.46,8.46v20a0,0,0,0,1,0,0h-20a8.46,8.46,0,0,1-8.46-8.46v0a20,20,0,0,1,20-20Z" transform="translate(-94.42 357.3) rotate(-45)" style="fill:#006832;opacity:0.5"/><path d="M410,298.52h0a8.46,8.46,0,0,1,8.46,8.46v20a0,0,0,0,1,0,0h-20a8.46,8.46,0,0,1-8.46-8.46v0A20,20,0,0,1,410,298.52Z" transform="translate(-102.76 377.42) rotate(-45)" style="fill:#8bd571;opacity:0.5"/><path d="M369.74,298.27h0a8.46,8.46,0,0,1,8.46,8.46v20a0,0,0,0,1,0,0h-20a8.46,8.46,0,0,1-8.46-8.46v0A20,20,0,0,1,369.74,298.27Z" transform="translate(-114.37 348.89) rotate(-45)" style="fill:#315453;opacity:0.5"/><path d="M349.62,318.91h0a8.46,8.46,0,0,1,8.46,8.46v20a0,0,0,0,1,0,0h-20a8.46,8.46,0,0,1-8.46-8.46v0A20,20,0,0,1,349.62,318.91Z" transform="translate(-134.85 340.71) rotate(-45)" style="fill:#213117;opacity:0.5"/><path d="M369.74,339h0a8.46,8.46,0,0,1,8.46,8.46v20a0,0,0,0,1,0,0h-20a8.46,8.46,0,0,1-8.46-8.46v0a20,20,0,0,1,20-20Z" transform="translate(-143.19 360.83) rotate(-45)" style="fill:#315453;opacity:0.5"/><path d="M182.14,279.19h0a8.46,8.46,0,0,1,8.46,8.46v20a0,0,0,0,1,0,0h-20a8.46,8.46,0,0,1-8.46-8.46v0A20,20,0,0,1,182.14,279.19Z" transform="translate(-155.82 210.65) rotate(-45)" style="fill:#2cad8a;opacity:0.5"/><path d="M202.26,299.31h0a8.46,8.46,0,0,1,8.46,8.46v20a0,0,0,0,1,0,0h-20a8.46,8.46,0,0,1-8.46-8.46v0a20,20,0,0,1,20-20Z" transform="translate(-164.15 230.77) rotate(-45)" style="fill:#add04e;opacity:0.5"/><path d="M716.25,645.54h0a8.46,8.46,0,0,1,8.46,8.46v20a0,0,0,0,1,0,0h-20a8.46,8.46,0,0,1-8.46-8.46v0a20,20,0,0,1,20-20Z" transform="translate(-258.43 695.63) rotate(-45)" style="fill:#add04e;opacity:0.5"/><path d="M736.37,665.66h0a8.46,8.46,0,0,1,8.46,8.46v20a0,0,0,0,1,0,0h-20a8.46,8.46,0,0,1-8.46-8.46v0A20,20,0,0,1,736.37,665.66Z" transform="translate(-266.77 715.75) rotate(-45)" style="fill:#057946;opacity:0.5"/><path d="M835,762.27h0a8.46,8.46,0,0,1,8.46,8.46v20a0,0,0,0,1,0,0h-20a8.46,8.46,0,0,1-8.46-8.46v0a20,20,0,0,1,20-20Z" transform="translate(-306.2 813.77) rotate(-45)" style="fill:#8bd571;opacity:0.5"/><path d="M686.13,782.47h0a8.46,8.46,0,0,1,8.46,8.46v20a0,0,0,0,1,0,0h-20a8.46,8.46,0,0,1-8.46-8.46v0A20,20,0,0,1,686.13,782.47Z" transform="translate(-364.07 714.43) rotate(-45)" style="fill:#2cad8a;opacity:0.5"/><path d="M855.64,742.17h0a8.46,8.46,0,0,1,8.46,8.46v20a0,0,0,0,1,0,0h-20a8.46,8.46,0,0,1-8.46-8.46v0A20,20,0,0,1,855.64,742.17Z" transform="translate(-285.93 822.49) rotate(-45)" style="fill:#2cad8a;opacity:0.5"/><path d="M875.5,762h0a8.46,8.46,0,0,1,8.46,8.46v20a0,0,0,0,1,0,0H864A8.46,8.46,0,0,1,855.5,782v0A20,20,0,0,1,875.5,762Z" transform="translate(-294.16 842.35) rotate(-45)" style="fill:#0d4c5e;opacity:0.5"/><path d="M855.38,782.67h0a8.46,8.46,0,0,1,8.46,8.46v20a0,0,0,0,1,0,0h-20a8.46,8.46,0,0,1-8.46-8.46v0a20,20,0,0,1,20-20Z" transform="translate(-314.65 834.17) rotate(-45)" style="fill:#057946;opacity:0.5"/><path d="M835.26,803.31h0a8.46,8.46,0,0,1,8.46,8.46v20a0,0,0,0,1,0,0h-20a8.46,8.46,0,0,1-8.46-8.46v0A20,20,0,0,1,835.26,803.31Z" transform="translate(-335.14 825.99) rotate(-45)" style="fill:#add04e;opacity:0.5"/><path d="M222.38,319.43h0a8.46,8.46,0,0,1,8.46,8.46v20a0,0,0,0,1,0,0h-20a8.46,8.46,0,0,1-8.46-8.46v0A20,20,0,0,1,222.38,319.43Z" transform="translate(-172.49 250.89) rotate(-45)" style="fill:#057946;opacity:0.5"/><path d="M242.5,339.55h0A8.46,8.46,0,0,1,251,348v20a0,0,0,0,1,0,0H231a8.46,8.46,0,0,1-8.46-8.46v0a20,20,0,0,1,20-20Z" transform="translate(-180.82 271.01) rotate(-45)" style="fill:#0d4c5e;opacity:0.5"/><path d="M202.26,340.84h0a8.46,8.46,0,0,1,8.46,8.46v20a0,0,0,0,1,0,0h-20a8.46,8.46,0,0,1-8.46-8.46v0A20,20,0,0,1,202.26,340.84Z" transform="translate(-193.52 242.93) rotate(-45)" style="fill:#add04e;opacity:0.5"/><path d="M222.38,361h0a8.46,8.46,0,0,1,8.46,8.46v20a0,0,0,0,1,0,0h-20a8.46,8.46,0,0,1-8.46-8.46v0a20,20,0,0,1,20-20Z" transform="translate(-201.86 263.05) rotate(-45)" style="fill:#057946;opacity:0.5"/><path d="M302.86,441.44h0a8.46,8.46,0,0,1,8.46,8.46v20a0,0,0,0,1,0,0h-20a8.46,8.46,0,0,1-8.46-8.46v0a20,20,0,0,1,20-20Z" transform="translate(-235.19 343.54) rotate(-45)" style="fill:#006832;opacity:0.5"/><path d="M222.38,401h0a8.46,8.46,0,0,1,8.46,8.46v20a0,0,0,0,1,0,0h-20a8.46,8.46,0,0,1-8.46-8.46v0a20,20,0,0,1,20-20Z" transform="translate(-230.13 274.77) rotate(-45)" style="fill:#057946;opacity:0.5"/><path d="M242.5,421.07h0a8.46,8.46,0,0,1,8.46,8.46v20a0,0,0,0,1,0,0H231a8.46,8.46,0,0,1-8.46-8.46v0a20,20,0,0,1,20-20Z" transform="translate(-238.47 294.89) rotate(-45)" style="fill:#0d4c5e;opacity:0.5"/><path d="M262.62,441.19h0a8.46,8.46,0,0,1,8.46,8.46v20a0,0,0,0,1,0,0h-20a8.46,8.46,0,0,1-8.46-8.46v0A20,20,0,0,1,262.62,441.19Z" transform="translate(-246.8 315.01) rotate(-45)" style="fill:#213117;opacity:0.5"/><path d="M282.74,461.31h0a8.46,8.46,0,0,1,8.46,8.46v20a0,0,0,0,1,0,0h-20a8.46,8.46,0,0,1-8.46-8.46v0A20,20,0,0,1,282.74,461.31Z" transform="translate(-255.14 335.13) rotate(-45)" style="fill:#315453;opacity:0.5"/><path d="M323,501.56h0a8.46,8.46,0,0,1,8.46,8.46v20a0,0,0,0,1,0,0h-20a8.46,8.46,0,0,1-8.46-8.46v0a20,20,0,0,1,20-20Z" transform="translate(-271.81 375.37) rotate(-45)" style="fill:#8bd571;opacity:0.5"/><path d="M202.26,421.59h0a8.46,8.46,0,0,1,8.46,8.46v20a0,0,0,0,1,0,0h-20a8.46,8.46,0,0,1-8.46-8.46v0A20,20,0,0,1,202.26,421.59Z" transform="translate(-250.62 266.58) rotate(-45)" style="fill:#add04e;opacity:0.5"/><path d="M222.38,441.71h0a8.46,8.46,0,0,1,8.46,8.46v20a0,0,0,0,1,0,0h-20a8.46,8.46,0,0,1-8.46-8.46v0A20,20,0,0,1,222.38,441.71Z" transform="translate(-258.96 286.71) rotate(-45)" style="fill:#057946;opacity:0.5"/><path d="M242.5,461.83h0a8.46,8.46,0,0,1,8.46,8.46v20a0,0,0,0,1,0,0H231a8.46,8.46,0,0,1-8.46-8.46v0A20,20,0,0,1,242.5,461.83Z" transform="translate(-267.29 306.83) rotate(-45)" style="fill:#0d4c5e;opacity:0.5"/><path d="M282.74,502.08h0a8.46,8.46,0,0,1,8.46,8.46v20a0,0,0,0,1,0,0h-20a8.46,8.46,0,0,1-8.46-8.46v0a20,20,0,0,1,20-20Z" transform="translate(-283.96 347.07) rotate(-45)" style="fill:#315453;opacity:0.5"/><path d="M222.38,482.47h0a8.46,8.46,0,0,1,8.46,8.46v20a0,0,0,0,1,0,0h-20a8.46,8.46,0,0,1-8.46-8.46v0A20,20,0,0,1,222.38,482.47Z" transform="translate(-287.78 298.64) rotate(-45)" style="fill:#057946;opacity:0.5"/><path d="M302.86,563h0a8.46,8.46,0,0,1,8.46,8.46v20a0,0,0,0,1,0,0h-20a8.46,8.46,0,0,1-8.46-8.46v0A20,20,0,0,1,302.86,563Z" transform="translate(-321.12 379.13) rotate(-45)" style="fill:#006832;opacity:0.5"/><path d="M323,583.08h0a8.46,8.46,0,0,1,8.46,8.46v20a0,0,0,0,1,0,0h-20a8.46,8.46,0,0,1-8.46-8.46v0A20,20,0,0,1,323,583.08Z" transform="translate(-329.45 399.25) rotate(-45)" style="fill:#8bd571;opacity:0.5"/><path d="M222.38,523.23h0a8.46,8.46,0,0,1,8.46,8.46v20a0,0,0,0,1,0,0h-20a8.46,8.46,0,0,1-8.46-8.46v0a20,20,0,0,1,20-20Z" transform="translate(-316.6 310.58) rotate(-45)" style="fill:#057946;opacity:0.5"/><path d="M302.86,603.72h0a8.46,8.46,0,0,1,8.46,8.46v20a0,0,0,0,1,0,0h-20a8.46,8.46,0,0,1-8.46-8.46v0a20,20,0,0,1,20-20Z" transform="translate(-349.94 391.07) rotate(-45)" style="fill:#006832;opacity:0.5"/><path d="M403.74,421.57h0a8.46,8.46,0,0,1,8.46,8.46v20a0,0,0,0,1,0,0h-20a8.46,8.46,0,0,1-8.46-8.46v0a20,20,0,0,1,20-20Z" transform="translate(-191.6 409.05) rotate(-45)" style="fill:#8bd571;opacity:0.5"/><path d="M363.49,422.09h0a8.46,8.46,0,0,1,8.46,8.46v20a0,0,0,0,1,0,0H352a8.46,8.46,0,0,1-8.46-8.46v0A20,20,0,0,1,363.49,422.09Z" transform="translate(-203.75 380.74) rotate(-45)" style="fill:#315453;opacity:0.5"/><path d="M363.49,462.08h0a8.46,8.46,0,0,1,8.46,8.46v20a0,0,0,0,1,0,0H352a8.46,8.46,0,0,1-8.46-8.46v0A20,20,0,0,1,363.49,462.08Z" transform="translate(-232.03 392.46) rotate(-45)" style="fill:#315453;opacity:0.5"/><path d="M383.62,482.21h0a8.46,8.46,0,0,1,8.46,8.46v20a0,0,0,0,1,0,0h-20a8.46,8.46,0,0,1-8.46-8.46v0A20,20,0,0,1,383.62,482.21Z" transform="translate(-240.36 412.58) rotate(-45)" style="fill:#006832;opacity:0.5"/><path d="M403.74,502.33h0a8.46,8.46,0,0,1,8.46,8.46v20a0,0,0,0,1,0,0h-20a8.46,8.46,0,0,1-8.46-8.46v0A20,20,0,0,1,403.74,502.33Z" transform="translate(-248.7 432.7) rotate(-45)" style="fill:#8bd571;opacity:0.5"/><path d="M403.74,543.09h0a8.46,8.46,0,0,1,8.46,8.46v20a0,0,0,0,1,0,0h-20a8.46,8.46,0,0,1-8.46-8.46v0A20,20,0,0,1,403.74,543.09Z" transform="translate(-277.52 444.64) rotate(-45)" style="fill:#8bd571;opacity:0.5"/><path d="M363.49,543.61h0a8.46,8.46,0,0,1,8.46,8.46v20a0,0,0,0,1,0,0H352a8.46,8.46,0,0,1-8.46-8.46v0a20,20,0,0,1,20-20Z" transform="translate(-289.67 416.33) rotate(-45)" style="fill:#315453;opacity:0.5"/><path d="M484.76,543.35h0a8.46,8.46,0,0,1,8.46,8.46v20a0,0,0,0,1,0,0h-20a8.46,8.46,0,0,1-8.46-8.46v0a20,20,0,0,1,20-20Z" transform="translate(-253.98 502.01) rotate(-45)" style="fill:#0d4c5e;opacity:0.5"/><path d="M504.88,563.48h0a8.46,8.46,0,0,1,8.46,8.46v20a0,0,0,0,1,0,0h-20a8.46,8.46,0,0,1-8.46-8.46v0A20,20,0,0,1,504.88,563.48Z" transform="translate(-262.31 522.13) rotate(-45)" style="fill:#213117;opacity:0.5"/><path d="M424.39,523h0a8.46,8.46,0,0,1,8.46,8.46v20a0,0,0,0,1,0,0h-20a8.46,8.46,0,0,1-8.46-8.46v0A20,20,0,0,1,424.39,523Z" transform="translate(-257.25 453.36) rotate(-45)" style="fill:#2cad8a;opacity:0.5"/><path d="M464.64,563.23h0a8.46,8.46,0,0,1,8.46,8.46v20a0,0,0,0,1,0,0h-20a8.46,8.46,0,0,1-8.46-8.46v0a20,20,0,0,1,20-20Z" transform="translate(-273.92 493.6) rotate(-45)" style="fill:#057946;opacity:0.5"/><path d="M484.76,583.35h0a8.46,8.46,0,0,1,8.46,8.46v20a0,0,0,0,1,0,0h-20a8.46,8.46,0,0,1-8.46-8.46v0A20,20,0,0,1,484.76,583.35Z" transform="translate(-282.26 513.72) rotate(-45)" style="fill:#0d4c5e;opacity:0.5"/><path d="M715.88,686.48h0a8.46,8.46,0,0,1,8.46,8.46v20a0,0,0,0,1,0,0h-20a8.46,8.46,0,0,1-8.46-8.46v0A20,20,0,0,1,715.88,686.48Z" transform="translate(-287.49 707.35) rotate(-45)" style="fill:#213117;opacity:0.5"/><path d="M695.76,706.35h0a8.46,8.46,0,0,1,8.46,8.46v20a0,0,0,0,1,0,0h-20a8.46,8.46,0,0,1-8.46-8.46v0A20,20,0,0,1,695.76,706.35Z" transform="translate(-307.43 698.94) rotate(-45)" style="fill:#0d4c5e;opacity:0.5"/><path d="M505.48,176.33h0a8.46,8.46,0,0,1,8.46,8.46v20a0,0,0,0,1,0,0h-20a8.46,8.46,0,0,1-8.46-8.46v0A20,20,0,0,1,505.48,176.33Z" transform="translate(718.3 678.65) rotate(-135)" style="fill:#006832;opacity:0.5"/><path d="M525.35,196.45h0a8.46,8.46,0,0,1,8.46,8.46v20a0,0,0,0,1,0,0h-20a8.46,8.46,0,0,1-8.46-8.46v0A20,20,0,0,1,525.35,196.45Z" transform="translate(738 727.05) rotate(-135)" style="fill:#315453;opacity:0.5"/><path d="M671.5,88.31h0A8.46,8.46,0,0,1,680,96.77v20a0,0,0,0,1,0,0H660a8.46,8.46,0,0,1-8.46-8.46v0A20,20,0,0,1,671.5,88.31Z" transform="translate(1063.96 645.78) rotate(-135)" style="fill:#057946;opacity:0.5"/><path d="M711.74,48.07h0a8.46,8.46,0,0,1,8.46,8.46v20a0,0,0,0,1,0,0h-20a8.46,8.46,0,0,1-8.46-8.46v0a20,20,0,0,1,20-20Z" transform="translate(1161.11 605.54) rotate(-135)" style="fill:#213117;opacity:0.5"/><path d="M752,7.83h0a8.46,8.46,0,0,1,8.46,8.46v20a0,0,0,0,1,0,0h-20A8.46,8.46,0,0,1,732,27.83v0A20,20,0,0,1,752,7.83Z" transform="translate(1258.26 565.3) rotate(-135)" style="fill:#006832;opacity:0.5"/><path d="M671.24,128.55h0A8.46,8.46,0,0,1,679.7,137v20a0,0,0,0,1,0,0h-20a8.46,8.46,0,0,1-8.46-8.46v0A20,20,0,0,1,671.24,128.55Z" transform="translate(1035.07 714.3) rotate(-135)" style="fill:#2cad8a;opacity:0.5"/><path d="M771.85,27.95h0a8.46,8.46,0,0,1,8.46,8.46v20a0,0,0,0,1,0,0h-20a8.46,8.46,0,0,1-8.46-8.46v0a20,20,0,0,1,20-20Z" transform="translate(1277.96 613.7) rotate(-135)" style="fill:#315453;opacity:0.5"/><path d="M772.89,108.43h0a8.46,8.46,0,0,1,8.46,8.46v20a0,0,0,0,1,0,0h-20a8.46,8.46,0,0,1-8.46-8.46v0a20,20,0,0,1,20-20Z" transform="translate(1222.81 751.82) rotate(-135)" style="fill:#add04e;opacity:0.5"/><path d="M793,88.31h0a8.46,8.46,0,0,1,8.46,8.46v20a0,0,0,0,1,0,0h-20a8.46,8.46,0,0,1-8.46-8.46v0a20,20,0,0,1,20-20Z" transform="translate(1271.39 731.7) rotate(-135)" style="fill:#057946;opacity:0.5"/><path d="M1435.69,649.47h0a8.46,8.46,0,0,1,8.46,8.46v20a0,0,0,0,1,0,0h-20a8.46,8.46,0,0,1-8.46-8.46v0A20,20,0,0,1,1435.69,649.47Z" transform="translate(2910.33 121.89) rotate(135)" style="fill:#006832;opacity:0.5"/><path d="M1415.57,629.35h0a8.46,8.46,0,0,1,8.46,8.46v20a0,0,0,0,1,0,0h-20a8.46,8.46,0,0,1-8.46-8.46v0a20,20,0,0,1,20-20Z" transform="translate(2861.76 101.77) rotate(135)" style="fill:#8bd571;opacity:0.5"/><path d="M1388.94,689.71h0a8.46,8.46,0,0,1,8.46,8.46v20a0,0,0,0,1,0,0h-20a8.46,8.46,0,0,1-8.46-8.46v0a20,20,0,0,1,20-20Z" transform="translate(2858.97 223.65) rotate(135)" style="fill:#213117;opacity:0.5"/><path d="M1348.69,649.47h0a8.46,8.46,0,0,1,8.46,8.46v20a0,0,0,0,1,0,0h-20a8.46,8.46,0,0,1-8.46-8.46v0a20,20,0,0,1,20-20Z" transform="translate(2761.82 183.41) rotate(135)" style="fill:#006832;opacity:0.5"/><path d="M1328.57,629.35h0a8.46,8.46,0,0,1,8.46,8.46v20a0,0,0,0,1,0,0h-20a8.46,8.46,0,0,1-8.46-8.46v0a20,20,0,0,1,20-20Z" transform="translate(2713.24 163.29) rotate(135)" style="fill:#8bd571;opacity:0.5"/><path d="M1368.82,629.6h0a8.46,8.46,0,0,1,8.46,8.46v20a0,0,0,0,1,0,0h-20a8.46,8.46,0,0,1-8.46-8.46v0A20,20,0,0,1,1368.82,629.6Z" transform="translate(2782.11 135.26) rotate(135)" style="fill:#315453;opacity:0.5"/><path d="M1388.94,609h0a8.46,8.46,0,0,1,8.46,8.46v20a0,0,0,0,1,0,0h-20a8.46,8.46,0,0,1-8.46-8.46v0A20,20,0,0,1,1388.94,609Z" transform="translate(2801.87 85.8) rotate(135)" style="fill:#213117;opacity:0.5"/><path d="M1368.82,588.84h0a8.46,8.46,0,0,1,8.46,8.46v20a0,0,0,0,1,0,0h-20a8.46,8.46,0,0,1-8.46-8.46v0a20,20,0,0,1,20-20Z" transform="translate(2753.29 65.68) rotate(135)" style="fill:#315453;opacity:0.5"/></g></g></svg>